<svg xmlns="http://www.w3.org/2000/svg" width="64" height="64"><path fill="#8dd1d3" d="m63 13-13 5-18 6-18-6-13-5L32 2z"/><path fill="#d32436" d="M59 33h-5v-5l1-1h3l1 1z" class="st1"/><path fill="#ffeea9" d="M50 18v2c0 6-4 12-9 15-3 2-6 2-9 2-3 1-6 0-9-2-5-3-9-9-9-15v-2l18 6z"/><path fill="#d32436" d="M59 51v11H6V51c0-9 6-16 15-16h2l9 3 9-3h2c9 0 16 7 16 16" class="st1"/><path fill="#330d00" d="M63 12 32 1 1 12l-1 1 1 1 12 5v1c0 5 3 11 7 14-9 1-15 8-15 17v11l1 1h53l1-1V51c0-9-7-16-16-17 4-3 7-9 7-14v-1l4-2v8l-2 4v4l1 1h5l1-1v-4q0-3-3-3V16l6-2 1-1zm-6 20h-2v-3l1-1 1 1zm0 19v10H7V51c0-8 6-15 14-15h2l1 1h1l1 1h3l1 1h5v-1h3l1-1h4c8-1 14 6 14 14m-8-31c0 6-4 11-9 14-2 2-5 2-8 2h-2l-6-2c-5-3-8-8-8-14l16 5h1zm0-3-17 6-17-6-11-4L32 3l28 10z"/><text x="20" y="59" fill="#fff" stroke="#000" stroke-dasharray="5 5" stroke-width="0" font-family="Noto Sans JP" font-size="20" font-weight="bold">CS</text></svg>